<svg width="24" height="24" viewBox="0 0 24 24" fill="none" xmlns="http://www.w3.org/2000/svg">
<g clip-path="url(#clip0_3_310)">
<path d="M22.5801 5.54668L18.6667 1.61335C18.4081 1.35606 18.0582 1.21162 17.6934 1.21162C17.3286 1.21162 16.9787 1.35606 16.7201 1.61335L2.84674 15.4667L1.58007 20.9333C1.53637 21.1332 1.53787 21.3403 1.58445 21.5394C1.63103 21.7386 1.72152 21.9249 1.84931 22.0846C1.9771 22.2444 2.13895 22.3735 2.32305 22.4627C2.50715 22.5519 2.70885 22.5988 2.9134 22.6C3.00871 22.6096 3.10476 22.6096 3.20007 22.6L8.72674 21.3333L22.5801 7.49335C22.8374 7.23475 22.9818 6.8848 22.9818 6.52002C22.9818 6.15523 22.8374 5.80528 22.5801 5.54668ZM8.06007 20.1334L2.88007 21.22L4.06007 16.14L14.4401 5.80002L18.4401 9.80002L8.06007 20.1334ZM19.3334 8.83335L15.3334 4.83335L17.6534 2.52668L21.5867 6.52668L19.3334 8.83335Z" fill="#A8A8A8"/>
<rect x="1" y="1" width="23.8263" height="23.8263" rx="3.97106" fill="#F9FAFB"/>
<path d="M3.99997 13.1668L8.33312 17.8331L19.1666 6.16647" stroke="#A2A2A2" stroke-width="2.20614" stroke-linecap="round" stroke-linejoin="round"/>
</g>
<defs>
<clipPath id="clip0_3_310">
<rect width="24" height="24" fill="white"/>
</clipPath>
</defs>
</svg>
