<svg width="22" height="22" viewBox="0 0 22 22" fill="none" xmlns="http://www.w3.org/2000/svg">
<path d="M21.58 4.54673L17.6667 0.613395C17.4081 0.356105 17.0582 0.21167 16.6934 0.21167C16.3286 0.21167 15.9786 0.356105 15.72 0.613395L1.8467 14.4667L0.580038 19.9334C0.536342 20.1332 0.53784 20.3403 0.584422 20.5395C0.631004 20.7387 0.721494 20.9249 0.84928 21.0847C0.977067 21.2444 1.13892 21.3736 1.32302 21.4627C1.50712 21.5519 1.70882 21.5988 1.91337 21.6001C2.00868 21.6097 2.10472 21.6097 2.20004 21.6001L7.7267 20.3334L21.58 6.49339C21.8373 6.2348 21.9818 5.88485 21.9818 5.52006C21.9818 5.15527 21.8373 4.80532 21.58 4.54673ZM7.06004 19.1334L1.88004 20.2201L3.06004 15.1401L13.44 4.80006L17.44 8.80006L7.06004 19.1334ZM18.3334 7.8334L14.3334 3.83339L16.6534 1.52673L20.5867 5.52673L18.3334 7.8334Z" fill="#A8A8A8"/>
</svg>
